<svg xmlns="http://www.w3.org/2000/svg" viewBox="0 0 277 75"><path d="M13.97 56.01a.24.24 0 00-.2-.12h-2.82a.22.22 0 00-.2.12L.03 74.61a.235.235 0 00.2.35h2.88c.08 0 .16-.04.2-.12 0 0 1.81-3.09 1.94-3.3h14.21c.13.21 1.94 3.3 1.94 3.3.04.07.12.12.2.12h2.91c.08 0 .16-.04.2-.12.04-.07.04-.16 0-.23l-10.74-18.6zm3.79 12.54H6.96c.36-.62 5.03-8.71 5.39-9.33.36.62 5.05 8.7 5.41 9.33zm26.09-11.96c-1.59-.46-3.95-.7-7.01-.7h-9.79c-.13 0-.23.11-.23.23v18.6c0 .13.1.23.23.23h2.53c.13 0 .23-.11.23-.23v-7.79h7c3.08 0 5.45-.24 7.04-.7 2.88-.82 4.34-2.44 4.34-4.82 0-2.37-1.46-4-4.34-4.82zm1.35 4.84c0 1.67-2.5 2.52-7.42 2.52h-7.97V58.9h7.77c2.58 0 4.53.23 5.81.68 1.21.42 1.81 1.03 1.81 1.85zM70 57.82c-1.93-1.28-4.74-1.92-8.35-1.92-3.61 0-6.42.65-8.35 1.92-2.31 1.57-3.48 4.13-3.48 7.62 0 3.5 1.17 6.06 3.48 7.63 1.92 1.25 4.74 1.89 8.36 1.89 3.62 0 6.43-.63 8.35-1.88 2.31-1.57 3.48-4.13 3.48-7.63-.01-3.5-1.18-6.06-3.49-7.63zm-2.09 13.02c-1.32.77-3.43 1.16-6.27 1.16-2.84 0-4.96-.39-6.28-1.17-1.7-.98-2.56-2.8-2.56-5.39 0-2.6.86-4.42 2.56-5.41 1.31-.76 3.43-1.14 6.28-1.14 2.83 0 4.94.39 6.26 1.17 1.71.99 2.58 2.8 2.58 5.38 0 2.59-.86 4.4-2.57 5.4zM95.09 72H79.23V56.13c0-.13-.1-.23-.23-.23h-2.53c-.13 0-.23.11-.23.23v18.6c0 .13.11.23.23.23H95.1c.13 0 .23-.11.23-.23v-2.49c-.01-.13-.12-.24-.24-.24zm21.26 0h-15.86V56.13c0-.13-.1-.23-.23-.23h-2.53c-.13 0-.23.11-.23.23v18.6c0 .13.11.23.23.23h18.63c.13 0 .23-.11.23-.23v-2.49c-.01-.13-.11-.24-.24-.24zm20.37-14.18c-1.93-1.28-4.75-1.92-8.36-1.92-3.61 0-6.42.65-8.35 1.92-2.31 1.57-3.48 4.13-3.48 7.62 0 3.5 1.17 6.06 3.48 7.63 1.93 1.25 4.74 1.89 8.36 1.89 3.62 0 6.43-.63 8.35-1.88 2.31-1.57 3.48-4.13 3.48-7.63-.01-3.5-1.18-6.06-3.48-7.63zm-2.1 13.02c-1.32.77-3.43 1.17-6.26 1.17-2.84 0-4.95-.39-6.28-1.17-1.7-.98-2.56-2.8-2.56-5.39 0-2.6.86-4.42 2.56-5.41 1.31-.76 3.43-1.14 6.28-1.14 2.84 0 4.94.39 6.26 1.17 1.71.99 2.58 2.8 2.58 5.38s-.87 4.39-2.58 5.39z" fill="#3c5674"/><path d="M175.63 63.95H165c-.13 0-.23.1-.23.23v2.53c0 .13.11.23.23.23h7.86v2.58c-.78 1.01-1.94 1.72-3.46 2.1-.52.12-1.14.22-1.84.28-.7.07-1.52.1-2.44.1-2.82 0-4.93-.39-6.28-1.17-1.7-.98-2.56-2.8-2.56-5.39s.86-4.4 2.56-5.38c1.33-.77 3.44-1.17 6.28-1.17 1.92 0 3.44.15 4.5.45 1.61.43 2.79 1.25 3.53 2.43.07.1.19.14.3.09l2.29-1.1c.06-.03.1-.08.12-.14.02-.06.01-.13-.02-.19-1.71-3.01-5.31-4.54-10.72-4.54-3.61 0-6.43.65-8.36 1.92-2.32 1.57-3.49 4.13-3.49 7.62 0 3.48 1.17 6.04 3.48 7.6 1.92 1.27 4.74 1.91 8.36 1.91 3.23 0 5.82-.54 7.74-1.58v1.35c0 .13.11.23.23.23h2.53c.13 0 .23-.11.23-.23V64.18c.02-.13-.08-.23-.21-.23zm26.48 10.66l-10.75-18.6a.24.24 0 00-.2-.12h-2.82a.22.22 0 00-.2.12l-10.72 18.6a.235.235 0 00.2.35h2.88c.08 0 .16-.04.2-.12 0 0 1.81-3.09 1.94-3.3h14.22c.12.21 1.94 3.3 1.94 3.3.04.07.12.12.2.12h2.91c.08 0 .16-.04.2-.12.05-.07.05-.16 0-.23zm-6.95-6.06h-10.79c.36-.62 5.03-8.71 5.39-9.33.35.62 5.04 8.7 5.4 9.33zM227.3 55.9h-2.49a.22.22 0 00-.2.12s-8.63 14.96-9.01 15.63c-.39-.67-9.02-15.63-9.02-15.63a.24.24 0 00-.2-.12h-2.48c-.13 0-.23.11-.23.23v18.6c0 .13.1.23.23.23h2.53c.13 0 .23-.11.23-.23V62.15c.77 1.34 7.33 12.69 7.33 12.69.05.07.12.12.2.12h2.8c.08 0 .16-.04.2-.12 0 0 6.57-11.36 7.33-12.69v12.58c0 .13.11.23.23.23h2.53c.13 0 .23-.11.23-.23v-18.6c.02-.13-.09-.23-.21-.23zm22.99 2.99c.13 0 .23-.11.23-.23v-2.53c0-.13-.1-.23-.23-.23h-18.63c-.13 0-.23.11-.23.23v18.6c0 .13.11.23.23.23h18.63c.13 0 .23-.11.23-.23v-2.49c0-.13-.1-.23-.23-.23h-15.86v-5.06h15.86c.13 0 .23-.11.23-.23v-2.53c0-.13-.1-.23-.23-.23h-15.86v-5.05c.45-.02 15.86-.02 15.86-.02zm22.35 5.76c-1.58-.47-3.95-.71-7.05-.71l-3.34-.06c-.89-.04-1.61-.1-2.12-.17-2.52-.36-3.8-1.13-3.8-2.29 0-1.7 2.71-2.56 8.06-2.56l3.29.05c.88.03 1.59.09 2.1.16 2.37.3 3.77.95 4.18 1.92.04.11.16.16.27.13l2.46-.62c.06-.02.12-.06.15-.11s.04-.12.02-.18c-.54-1.92-2.24-3.21-5.05-3.84-1.47-.33-3.7-.49-6.65-.49-3.29 0-5.73.21-7.28.63-3.03.81-4.56 2.46-4.56 4.9 0 2.34 1.44 3.95 4.28 4.79 1.63.48 3.95.73 6.9.73l3.45.05c.91.04 1.63.09 2.13.16 2.59.36 3.91 1.14 3.91 2.32 0 1.7-2.7 2.56-8.02 2.56l-3.21-.05c-.86-.03-1.57-.09-2.11-.16-2.39-.29-3.83-.92-4.28-1.86a.23.23 0 00-.27-.12l-2.47.69c-.06.02-.11.06-.14.11a.23.23 0 00-.02.18c.59 1.87 2.3 3.12 5.08 3.71 1.45.29 3.66.44 6.59.44 3.24 0 5.68-.2 7.27-.6 3.03-.81 4.57-2.45 4.57-4.89.02-2.37-1.45-3.99-4.34-4.82z" fill="#838a95"/><linearGradient id="a" gradientUnits="userSpaceOnUse" x1="143.238" y1="48.45" x2="153.581" y2="23.933" gradientTransform="matrix(1 0 0 -1 0 76)"><stop offset="0" stop-color="#fcb23d"/><stop offset=".455" stop-color="#e78f26"/><stop offset="1" stop-color="#e68525"/></linearGradient><path d="M143.1 35.32l3.21-3.22s-.83.58-8.12-5.86c-7.29-6.44-9.46-8.2-9.46-8.2s1.28 1.41 8.36 9.32c5.81 6.48 6.09 7.73 6.01 7.96zm13.13-7.99c6.42-7.32 8.17-9.5 8.17-9.5s-1.4 1.28-9.28 8.4c-6.45 5.83-7.69 6.11-7.93 6.03l3.21 3.22s-.58-.83 5.83-8.15zm-9.04 4.92l-.06-.06c0 .01.01.05.06.06zm-10.03 11.93c-6.41 7.32-8.16 9.5-8.16 9.5s1.4-1.28 9.28-8.4c6.45-5.83 7.69-6.11 7.93-6.03L143 36.04s.58.83-5.84 8.14zm9.05-4.92l.06.06c-.01 0-.01-.04-.06-.06zm10.35 4.78c-5.81-6.48-6.09-7.72-6-7.96l-3.21 3.22s.83-.58 8.11 5.86c7.29 6.44 9.46 8.2 9.46 8.2s-1.27-1.4-8.36-9.32z" fill="url(#a)"/><linearGradient id="b" gradientUnits="userSpaceOnUse" x1="144.004" y1="46.612" x2="152.037" y2="27.571" gradientTransform="matrix(1 0 0 -1 0 76)"><stop offset="0" stop-color="#f6ed56"/><stop offset=".064" stop-color="#f8db44"/><stop offset=".134" stop-color="#facf37"/><stop offset=".205" stop-color="#fcc72f"/><stop offset=".281" stop-color="#fcc52c"/><stop offset=".668" stop-color="#f79149"/><stop offset="1" stop-color="#f37045"/></linearGradient><path d="M132.92 49.63c1.15-1.34 2.64-3.05 4.52-5.2 2.39-2.73 5.07-5.99 5.76-7.66l2.29 2.3c-1.26.6-3.76 2.59-7.46 5.94-2.15 1.94-3.82 3.45-5.11 4.62zm27.96-.21c-1.33-1.16-3.03-2.65-5.17-4.53-3.63-3.2-6.27-5.21-7.63-5.79l2.28-2.29c.45.94 1.85 2.95 5.92 7.49 1.94 2.15 3.44 3.83 4.6 5.12zM147.9 32.44c1.26-.6 3.76-2.59 7.46-5.94 2.15-1.94 3.81-3.44 5.1-4.61a787.77 787.77 0 01-4.51 5.19c-2.39 2.73-5.06 5.99-5.76 7.66l-2.29-2.3zm-4.61 2.16c-.45-.94-1.85-2.94-5.92-7.49-1.93-2.16-3.43-3.83-4.6-5.13 1.33 1.16 3.03 2.65 5.17 4.53 3.63 3.2 6.27 5.21 7.63 5.79l-2.28 2.3z" fill="url(#b)"/><linearGradient id="c" gradientUnits="userSpaceOnUse" x1="144.115" y1="37.777" x2="142.904" y2="36.16" gradientTransform="matrix(1 0 0 -1 0 76)"><stop offset="0"/><stop offset=".157" stop-color="#030303"/><stop offset=".286" stop-color="#0e0e0e"/><stop offset=".406" stop-color="#1f1f1f"/><stop offset=".521" stop-color="#373737"/><stop offset=".631" stop-color="#575757"/><stop offset=".739" stop-color="#7d7d7d"/><stop offset=".843" stop-color="#ababab"/><stop offset=".944" stop-color="#dfdfdf"/><stop offset="1" stop-color="#fff"/></linearGradient><path d="M142.73 37.16l-1.76 2.42s1.6-.18 2.05 1.65l2.46-1.9-2.75-2.17z" opacity=".29" fill="url(#c)"/><linearGradient id="d" gradientUnits="userSpaceOnUse" x1="143.973" y1="42.943" x2="142.959" y2="44.055" gradientTransform="matrix(1 0 0 -1 0 76)"><stop offset="0"/><stop offset=".157" stop-color="#030303"/><stop offset=".286" stop-color="#0e0e0e"/><stop offset=".406" stop-color="#1f1f1f"/><stop offset=".521" stop-color="#373737"/><stop offset=".631" stop-color="#575757"/><stop offset=".739" stop-color="#7d7d7d"/><stop offset=".843" stop-color="#ababab"/><stop offset=".944" stop-color="#dfdfdf"/><stop offset="1" stop-color="#fff"/></linearGradient><path d="M145.3 31.82l-2.91-1.95s.34 1.01-1.79 1.56l2.42 3.26 2.28-2.87z" opacity=".29" fill="url(#d)"/><linearGradient id="e" gradientUnits="userSpaceOnUse" x1="149.5" y1="42.918" x2="150.612" y2="43.9" gradientTransform="matrix(1 0 0 -1 0 76)"><stop offset="0"/><stop offset=".157" stop-color="#030303"/><stop offset=".286" stop-color="#0e0e0e"/><stop offset=".406" stop-color="#1f1f1f"/><stop offset=".521" stop-color="#373737"/><stop offset=".631" stop-color="#575757"/><stop offset=".739" stop-color="#7d7d7d"/><stop offset=".843" stop-color="#ababab"/><stop offset=".944" stop-color="#dfdfdf"/><stop offset="1" stop-color="#fff"/></linearGradient><path d="M150.86 34.23l.99-1.54s-1.57-.13-2.02-1.96l-1.85 1.35 2.88 2.15z" opacity=".29" fill="url(#e)"/><linearGradient id="f" gradientUnits="userSpaceOnUse" x1="149.552" y1="37.74" x2="150.81" y2="36.515" gradientTransform="matrix(1 0 0 -1 0 76)"><stop offset="0"/><stop offset=".157" stop-color="#030303"/><stop offset=".286" stop-color="#0e0e0e"/><stop offset=".406" stop-color="#1f1f1f"/><stop offset=".521" stop-color="#373737"/><stop offset=".631" stop-color="#575757"/><stop offset=".739" stop-color="#7d7d7d"/><stop offset=".843" stop-color="#ababab"/><stop offset=".944" stop-color="#dfdfdf"/><stop offset="1" stop-color="#fff"/></linearGradient><path d="M148.48 39.69l2.37 1.54s.16-1.08 2.06-1.44l-2.3-2.97-2.13 2.87z" opacity=".29" fill="url(#f)"/><linearGradient id="g" gradientUnits="userSpaceOnUse" x1="146.826" y1="75.955" x2="146.826" y2="4.532" gradientTransform="matrix(1 0 0 -1 0 76)"><stop offset="0" stop-color="#f6ed56"/><stop offset=".064" stop-color="#f8db44"/><stop offset=".134" stop-color="#facf37"/><stop offset=".205" stop-color="#fcc72f"/><stop offset=".281" stop-color="#fcc52c"/><stop offset=".668" stop-color="#f79149"/><stop offset=".888" stop-color="#f37045"/><stop offset="1" stop-color="#f04c46"/></linearGradient><path d="M182.37 35.54s-6.87-.09-17.45-.65c-6-.32-10.13-.74-12.59-1.05-2.56-.43-3.26-1.2-3.61-3.62-.35-2.6-.84-6.93-1.2-12.65-.62-9.72-.92-17.53-.92-17.53s-.09 6.92-.65 17.55c-.29 5.53-.67 9.48-.96 12-.36 3.13-1.01 3.89-4.33 4.34-2.64.34-6.7.78-11.95 1.12-9.69.62-17.43.92-17.43.92s6.87.09 17.45.66c5.96.32 10.08.73 12.54 1.04 2.6.43 3.3 1.19 3.66 3.63.02.17.86 7.35 1.2 12.64.62 9.73.91 17.53.91 17.53s.09-6.92.65-17.55c.33-6.24.77-10.47 1.08-12.9.4-2.38 1.23-3.04 4.21-3.44 2.63-.34 6.71-.79 11.96-1.12 9.68-.62 17.43-.92 17.43-.92z" fill="url(#g)"/><path d="M147.01 71.47c0-.08-.3-7.92-.91-17.53-.34-5.41-1.19-12.58-1.2-12.64-.36-2.48-1.07-3.19-3.64-3.61-2.4-.3-6.52-.72-12.54-1.04-10.45-.55-17.37-.65-17.44-.65v-.05c.08 0 7.86-.3 17.43-.92 5.35-.34 9.45-.8 11.95-1.12 1.77-.24 2.68-.56 3.26-1.16.65-.66.88-1.7 1.05-3.16.4-3.4.73-7.55.96-12 .55-10.5.65-17.48.65-17.55h.05c0 .08.31 7.92.92 17.53.36 5.76.85 10.05 1.2 12.64.35 2.44 1.09 3.18 3.59 3.6 2.42.3 6.56.72 12.58 1.04 10.46.55 17.38.65 17.45.65v.05c-.08 0-7.86.31-17.43.92-5.33.34-9.44.8-11.96 1.12-2.97.4-3.79 1.07-4.19 3.42-.31 2.43-.75 6.65-1.08 12.9-.55 10.51-.65 17.48-.65 17.55l-.05.01zm-34.86-35.51c2.17.04 8.26.2 16.58.64 6.01.32 10.14.74 12.54 1.04 2.56.42 3.32 1.17 3.68 3.65.01.06.86 7.23 1.2 12.64.49 7.75.78 14.35.88 16.66.04-2.19.2-8.31.63-16.67.33-6.26.77-10.47 1.08-12.9.4-2.38 1.22-3.06 4.23-3.46 2.52-.32 6.64-.78 11.96-1.12 7.72-.49 14.27-.79 16.57-.88-2.17-.04-8.26-.19-16.58-.64-6.02-.32-10.17-.75-12.59-1.05-2.52-.43-3.27-1.17-3.63-3.64-.35-2.59-.83-6.89-1.2-12.65-.49-7.75-.78-14.35-.88-16.66-.04 2.19-.2 8.31-.64 16.67-.23 4.46-.56 8.61-.96 12-.17 1.47-.4 2.52-1.06 3.19-.59.6-1.51.93-3.29 1.17-2.5.32-6.6.77-11.95 1.12-7.73.51-14.28.8-16.57.89z" fill="#9a5422"/><linearGradient id="h" gradientUnits="userSpaceOnUse" x1="139.39" y1="53.129" x2="154.826" y2="26.349" gradientTransform="matrix(1 0 0 -1 0 76)"><stop offset="0" stop-color="#f2ed71"/><stop offset=".455" stop-color="#ffd72b"/><stop offset="1" stop-color="#f9a02d"/></linearGradient><path d="M146.96 61.77c-.13-2.37-.28-5.03-.46-7.86-.34-5.32-1.2-12.6-1.2-12.66-.39-2.65-1.24-3.5-3.97-3.95-2.42-.3-6.56-.73-12.58-1.04-2.92-.16-5.57-.28-7.87-.37 2.36-.13 5.03-.28 7.86-.46 5.36-.34 9.47-.8 11.97-1.12 3.44-.46 4.27-1.29 4.65-4.67.41-3.45.73-7.5.97-12.03.15-2.92.27-5.58.36-7.88.13 2.37.28 5.04.46 7.87.37 5.77.86 10.08 1.2 12.67.38 2.64 1.23 3.48 3.92 3.94 2.44.3 6.6.73 12.63 1.05 2.92.15 5.56.27 7.86.36-2.36.13-5.02.28-7.85.46-5.34.34-9.46.8-11.98 1.12-3.17.43-4.1 1.2-4.53 3.75-.31 2.45-.75 6.68-1.08 12.94-.15 2.93-.27 5.58-.36 7.88z" fill="url(#h)"/><path d="M122.17 35.82s2.79-.19 6.98-.47c2.09-.13 4.54-.34 7.15-.59 1.3-.13 2.65-.28 4.02-.45.68-.08 1.37-.18 2.04-.34.34-.08.66-.19.97-.33.31-.15.59-.33.84-.57.23-.24.42-.53.56-.84.13-.31.24-.64.31-.98.15-.67.22-1.36.3-2.05.15-1.37.28-2.72.4-4.02.22-2.61.39-5.06.5-7.15.23-4.19.38-6.99.38-6.99s-.11 2.8-.27 6.99c-.04 1.05-.11 2.18-.18 3.39-.07 1.2-.16 2.47-.27 3.78-.11 1.31-.23 2.66-.38 4.03-.08.68-.15 1.38-.3 2.07-.07.34-.18.68-.32 1.01-.15.33-.35.63-.6.9-.26.25-.57.45-.89.6-.33.14-.67.26-1.01.34-.69.16-1.38.26-2.06.34-1.37.17-2.72.31-4.02.44-1.31.13-2.57.23-3.77.32-1.2.09-2.33.16-3.38.22-4.2.2-7 .35-7 .35zm49.29-.07s-2.79.19-6.98.47c-2.09.13-4.54.34-7.15.59-1.3.13-2.65.28-4.02.45-.68.08-1.37.18-2.04.34-.34.08-.66.19-.97.33-.31.15-.59.33-.84.57-.23.24-.42.53-.56.84-.13.31-.24.64-.31.98-.15.67-.22 1.36-.3 2.05-.15 1.37-.28 2.72-.4 4.02-.22 2.61-.39 5.06-.5 7.15-.23 4.19-.38 6.99-.38 6.99s.11-2.8.27-6.99c.04-1.05.11-2.18.18-3.39.07-1.2.16-2.47.27-3.78.11-1.31.23-2.66.38-4.03.08-.68.15-1.38.3-2.07.07-.34.18-.68.32-1.01.15-.33.35-.63.6-.9.26-.25.57-.45.89-.6.33-.14.67-.26 1.01-.34.69-.16 1.38-.26 2.06-.34 1.37-.17 2.72-.31 4.02-.44 1.31-.13 2.57-.23 3.77-.32 1.2-.09 2.33-.16 3.38-.22l7-.35z" fill="#fff"/><path d="M146.69 9.73l.25 51.85s-.64-11.79-1.77-21.04c-.55-4.47-8.3-5.65-8.3-5.65s3.43-.4 4.67-.57c2.08-.29 3.47-.97 3.7-3.23 1.06-10.1 1.45-21.36 1.45-21.36z" opacity=".4" fill="#fff"/></svg>