<svg id="" xmlns="http://www.w3.org/2000/svg" width="100" height="24px" viewBox="0 0 90.12 18.175" class="draw"><g id="Gruppe_1844" transform="translate(-452.088 -1490.463)"><path id="Pfad_84" d="M1092.227,1497.789c-.7,1.138-1.39,2.249-2.076,3.361q-1.683,2.729-3.364,5.459a5.694,5.694,0,0,1-.9,1.135,3.175,3.175,0,0,1-5.235-1.38c-1.213-4.11-2.407-8.226-3.609-12.339-.3-1.014-.589-2.029-.9-3.038-.079-.256-.032-.331.242-.33q2.693.014,5.385,0c.26,0,.343.1.4.332q1.053,4.259,2.125,8.514c.033.133.074.264.112.4.155-.026.178-.155.234-.245,1.56-2.506,3.146-5,4.667-7.526a3.414,3.414,0,0,1,5.859.018c1.5,2.484,3.053,4.933,4.585,7.4.079.127.162.253.252.392a1.17,1.17,0,0,0,.2-.564q1.035-4.165,2.051-8.335c.07-.289.182-.383.48-.381,1.757.014,3.514.011,5.27,0,.288,0,.408.022.3.372q-2.256,7.648-4.489,15.3a3.246,3.246,0,0,1-3.8,2.228,3.328,3.328,0,0,1-1.976-1.412c-.883-1.232-1.616-2.56-2.414-3.846-1.074-1.73-2.131-3.47-3.2-5.205C1092.377,1498,1092.309,1497.911,1092.227,1497.789Z" transform="translate(-593.393 0)" fill="white"></path><path id="Pfad_85" d="M788.082,1500.971v.49c0,2.927-.006,5.854.008,8.782,0,.331-.073.429-.417.425-1.578-.02-3.157-.016-4.735,0-.286,0-.366-.081-.365-.366.008-4.989,0-9.978.01-14.967,0-1.663,1.195-2.572,2.946-2.318a5.592,5.592,0,0,1,2.787,1.479q4.761,4,9.542,7.982c.067.056.14.105.225.169a.6.6,0,0,0,.055-.411c0-2.94.009-5.88-.006-8.82,0-.377.114-.462.472-.457,1.553.019,3.106.014,4.659,0,.279,0,.4.047.4.369q-.016,7.5-.009,15.005a4.463,4.463,0,0,1-.023.572c-.184,1.422-1.156,2.086-2.69,1.861a5.273,5.273,0,0,1-2.641-1.281q-4.989-4.177-9.984-8.347C788.264,1501.1,788.211,1501.065,788.082,1500.971Z" transform="translate(-322.281 -2.303)" fill="white"></path><path id="Pfad_86" d="M1505.2,1492.946h.5c1.986,0,3.972.013,5.957-.01a1.294,1.294,0,0,1,1.056.441c1.854,1.96,3.734,3.9,5.592,5.852.231.243.344.252.581,0,1.9-2.007,3.815-3.995,5.717-6a.867.867,0,0,1,.7-.294c2.062.012,4.124.006,6.187.006h.416c.01.184-.122.244-.2.328q-4.085,4.2-8.183,8.394c-.249.254-.206.367.014.594q3.922,4.042,7.826,8.1c.061.063.118.129.179.2-.089.133-.215.077-.317.078-2.1,0-4.2,0-6.3.009a.7.7,0,0,1-.556-.261c-1.83-1.931-3.669-3.853-5.491-5.79-.227-.242-.332-.217-.547.01-1.819,1.924-3.654,3.832-5.477,5.751a.821.821,0,0,1-.659.291c-2.037-.013-4.073-.007-6.11-.007h-.375c-.026-.19.112-.248.192-.332q3.861-4.021,7.735-8.029c.268-.276.226-.4-.018-.652q-4.084-4.178-8.145-8.377C1505.4,1493.177,1505.341,1493.1,1505.2,1492.946Z" transform="translate(-989.701 -2.284)" fill="white"></path><path id="Pfad_87" d="M680.489,1507.718a.126.126,0,0,1,.214.09V1508q0,7.905.009,15.811c0,.377-.106.462-.468.458-1.54-.021-3.081-.016-4.622,0-.3,0-.42-.052-.419-.391.013-3.526.009-7.052.006-10.579a.6.6,0,0,1,.168-.479q2.562-2.542,5.112-5.1Z" transform="translate(-223.115 -15.903)" fill="white"></path><path id="Pfad_91" d="M675.2,1497.024v-4.292a.26.26,0,0,1,.26-.26h4.27a.131.131,0,0,1,.093.223l-4.4,4.421A.13.13,0,0,1,675.2,1497.024Z" transform="translate(-223.115 -1.855)" fill="white"></path></g></svg>